<svg version="1.1" id="Layer_1" xmlns="http://www.w3.org/2000/svg" xmlns:xlink="http://www.w3.org/1999/xlink" x="0px" y="0px"
	 width="100%" viewBox="0 0 500 500" enable-background="new 0 0 500 500" xml:space="preserve">
<path fill="#000000" opacity="1.000000" stroke="none" 
	d="
M246.000000,501.000000 
	C164.000015,501.000000 82.500038,501.000000 1.000044,501.000000 
	C1.000029,334.333405 1.000029,167.666779 1.000015,1.000133 
	C167.666565,1.000089 334.333130,1.000089 500.999756,1.000044 
	C500.999847,167.666519 500.999847,334.333038 500.999939,500.999786 
	C416.166656,501.000000 331.333344,501.000000 246.000000,501.000000 
M202.615387,228.703369 
	C207.022293,240.889481 211.497696,253.051590 215.779572,265.281494 
	C216.659058,267.793457 217.626602,269.020416 220.594391,268.933441 
	C228.911179,268.689728 237.239746,268.848511 246.147919,268.848511 
	C227.016220,217.989014 208.026016,167.505661 189.001831,116.931969 
	C185.069397,116.931969 181.387665,117.197891 177.763474,116.855118 
	C174.328445,116.530235 172.979477,117.814659 171.849579,121.031761 
	C156.711838,164.132721 141.397232,207.171555 126.139450,250.230377 
	C124.002769,256.260315 121.934708,262.314575 119.739906,268.630920 
	C120.828339,268.686920 121.643333,268.848816 121.695503,268.714508 
	C127.058380,254.903366 132.363754,241.069916 137.758957,227.012817 
	C158.493683,227.012817 179.315353,227.003830 200.136917,227.052032 
	C200.830414,227.053635 201.522552,227.634125 202.615387,228.703369 
M297.500000,171.942871 
	C287.012085,171.942871 276.524139,171.942871 266.036224,171.942871 
	C265.985229,172.566635 265.934235,173.190399 265.883240,173.814178 
	C267.427216,174.012665 268.966217,174.322891 270.515991,174.392166 
	C284.561127,175.020050 288.780304,179.399445 288.785706,193.480774 
	C288.794647,216.796738 288.788147,240.112686 288.788147,263.428650 
	C288.788147,265.164368 288.788147,266.900085 288.788147,268.533844 
	C298.671814,268.533844 307.751221,268.533844 317.095978,268.533844 
	C317.095978,259.924194 317.095245,251.613907 317.096130,243.303619 
	C317.097961,225.983215 317.014038,208.662201 317.134369,191.342606 
	C317.211090,180.300888 321.696564,175.581329 332.615051,174.584045 
	C334.435120,174.417801 336.285095,174.551926 338.097504,174.342041 
	C338.839996,174.256058 339.519470,173.625565 340.227600,173.242767 
	C340.154053,172.809464 340.080475,172.376175 340.006897,171.942871 
	C326.171265,171.942871 312.335632,171.942871 297.500000,171.942871 
M297.566895,317.995728 
	C294.751190,317.995728 291.935516,317.995728 289.016663,317.995728 
	C288.923828,319.091095 288.805481,319.908936 288.792328,320.728516 
	C288.535431,336.704193 289.095428,352.743408 287.844452,368.640228 
	C286.200653,389.528259 276.150757,400.703064 256.015686,400.804840 
	C255.276306,400.808594 254.540024,401.418182 253.802307,401.745392 
	C253.883347,402.309265 253.964401,402.873108 254.045441,403.436981 
	C260.820892,402.945129 267.669098,402.918762 274.357910,401.872833 
	C293.328125,398.906616 307.692841,389.597931 313.841309,370.549377 
	C319.374481,353.407074 316.367584,335.693726 317.157532,317.995728 
	C310.498108,317.995728 304.522247,317.995728 297.566895,317.995728 
z"/>
<path fill="#F9F9F9" opacity="1.000000" stroke="none" 
	d="
M202.415359,228.324081 
	C201.522552,227.634125 200.830414,227.053635 200.136917,227.052032 
	C179.315353,227.003830 158.493683,227.012817 137.758957,227.012817 
	C132.363754,241.069916 127.058380,254.903366 121.695503,268.714508 
	C121.643333,268.848816 120.828339,268.686920 119.739906,268.630920 
	C121.934708,262.314575 124.002769,256.260315 126.139450,250.230377 
	C141.397232,207.171555 156.711838,164.132721 171.849579,121.031761 
	C172.979477,117.814659 174.328445,116.530235 177.763474,116.855118 
	C181.387665,117.197891 185.069397,116.931969 189.001831,116.931969 
	C208.026016,167.505661 227.016220,217.989014 246.147919,268.848511 
	C237.239746,268.848511 228.911179,268.689728 220.594391,268.933441 
	C217.626602,269.020416 216.659058,267.793457 215.779572,265.281494 
	C211.497696,253.051590 207.022293,240.889481 202.415359,228.324081 
M183.690689,176.896683 
	C178.990601,163.103134 174.290512,149.309601 169.502075,135.256805 
	C159.095627,164.910278 148.756241,194.372665 138.270401,224.252365 
	C159.388077,224.252365 179.800949,224.252365 200.831909,224.252365 
	C195.107056,208.462875 189.519852,193.052979 183.690689,176.896683 
z"/>
<path fill="#FEFEFE" opacity="1.000000" stroke="none" 
	d="
M298.000000,171.942871 
	C312.335632,171.942871 326.171265,171.942871 340.006897,171.942871 
	C340.080475,172.376175 340.154053,172.809464 340.227600,173.242767 
	C339.519470,173.625565 338.839996,174.256058 338.097504,174.342041 
	C336.285095,174.551926 334.435120,174.417801 332.615051,174.584045 
	C321.696564,175.581329 317.211090,180.300888 317.134369,191.342606 
	C317.014038,208.662201 317.097961,225.983215 317.096130,243.303619 
	C317.095245,251.613907 317.095978,259.924194 317.095978,268.533844 
	C307.751221,268.533844 298.671814,268.533844 288.788147,268.533844 
	C288.788147,266.900085 288.788147,265.164368 288.788147,263.428650 
	C288.788147,240.112686 288.794647,216.796738 288.785706,193.480774 
	C288.780304,179.399445 284.561127,175.020050 270.515991,174.392166 
	C268.966217,174.322891 267.427216,174.012665 265.883240,173.814178 
	C265.934235,173.190399 265.985229,172.566635 266.036224,171.942871 
	C276.524139,171.942871 287.012085,171.942871 298.000000,171.942871 
z"/>
<path fill="#FDFDFD" opacity="1.000000" stroke="none" 
	d="
M298.056641,317.995728 
	C304.522247,317.995728 310.498108,317.995728 317.157532,317.995728 
	C316.367584,335.693726 319.374481,353.407074 313.841309,370.549377 
	C307.692841,389.597931 293.328125,398.906616 274.357910,401.872833 
	C267.669098,402.918762 260.820892,402.945129 254.045441,403.436981 
	C253.964401,402.873108 253.883347,402.309265 253.802307,401.745392 
	C254.540024,401.418182 255.276306,400.808594 256.015686,400.804840 
	C276.150757,400.703064 286.200653,389.528259 287.844452,368.640228 
	C289.095428,352.743408 288.535431,336.704193 288.792328,320.728516 
	C288.805481,319.908936 288.923828,319.091095 289.016663,317.995728 
	C291.935516,317.995728 294.751190,317.995728 298.056641,317.995728 
z"/>
<path fill="#020202" opacity="1.000000" stroke="none" 
	d="
M183.811661,177.269897 
	C189.519852,193.052979 195.107056,208.462875 200.831909,224.252365 
	C179.800949,224.252365 159.388077,224.252365 138.270401,224.252365 
	C148.756241,194.372665 159.095627,164.910278 169.502075,135.256805 
	C174.290512,149.309601 178.990601,163.103134 183.811661,177.269897 
z"/>
</svg>