<svg version="1.1" id="Layer_1" xmlns="http://www.w3.org/2000/svg" xmlns:xlink="http://www.w3.org/1999/xlink" x="0px" y="0px"
     width="100%" viewBox="0 0 496 496" enable-background="new 0 0 496 496" xml:space="preserve">
<path fill="#000000" opacity="1.000000" stroke="none" 
	d="
M140.909988,207.044083 
	C150.889938,178.909714 160.853760,151.186218 170.467255,123.341751 
	C172.203064,118.314171 174.498688,116.231300 180.005051,116.534309 
	C190.835007,117.130241 188.789566,115.231812 192.581131,125.312828 
	C209.863846,171.264175 227.152054,217.213470 244.424026,263.168884 
	C245.052933,264.842224 246.150436,266.432220 245.507904,268.976013 
	C236.576645,269.632965 227.497147,269.401947 218.429749,269.044373 
	C216.198654,268.956360 215.926025,266.624573 215.315979,264.951050 
	C211.325638,254.004715 207.241226,243.089615 203.479034,232.064865 
	C202.254654,228.476944 200.401199,227.218613 196.607620,227.256363 
	C178.617340,227.435364 160.623627,227.411926 142.632736,227.265213 
	C139.061371,227.236084 137.261398,228.428802 136.104874,231.859406 
	C132.383148,242.898956 128.362747,253.838226 124.411697,264.799652 
	C123.781364,266.548401 123.706566,268.909943 119.388023,268.874115 
	C125.957939,247.834900 133.902222,227.797806 140.909988,207.044083 
M164.771835,150.158401 
	C156.294830,174.401428 147.817825,198.644455 139.174194,223.363998 
	C159.815231,223.363998 179.474442,223.363998 199.950409,223.363998 
	C189.818253,194.313492 178.761093,166.364532 169.681732,136.376205 
	C167.834442,141.626770 166.459549,145.534683 164.771835,150.158401 
z"/>
<path fill="#000000" opacity="1.000000" stroke="none" 
	d="
M282.869781,178.039856 
	C279.106232,175.377365 275.135406,175.182098 271.100403,175.081482 
	C269.276031,175.035995 266.982971,175.752655 265.840302,172.361557 
	C290.772186,172.361557 315.387115,172.361557 339.975739,172.361557 
	C340.256805,174.286652 339.229492,174.778610 337.992798,174.941605 
	C336.842041,175.093246 335.669220,175.087479 334.505341,175.127716 
	C322.212952,175.552536 317.454010,180.290955 317.389099,192.765686 
	C317.272034,215.251938 317.392792,237.739304 317.333618,260.225983 
	C317.307159,270.276123 318.485168,269.223755 308.209656,269.293030 
	C303.046265,269.327850 297.878723,269.173828 292.720062,269.332642 
	C289.227600,269.440186 287.981049,267.984375 288.127716,264.570557 
	C289.136230,241.097839 288.440857,217.611267 288.474487,194.131607 
	C288.482635,188.447662 288.808350,182.245148 282.869781,178.039856 
z"/>
<path fill="#000000" opacity="1.000000" stroke="none" 
	d="
M300.019592,317.657349 
	C304.840088,317.665375 309.165344,317.661865 313.490479,317.686432 
	C315.428711,317.697449 317.333893,317.940338 317.259369,320.515472 
	C316.823090,335.599792 319.007141,350.807648 315.600830,365.749512 
	C310.729797,387.116394 296.409210,398.250305 275.568054,402.311432 
	C269.465424,403.500610 263.307495,403.088623 257.196899,403.706482 
	C255.913422,403.836243 254.472321,403.790253 253.964630,402.052582 
	C254.299927,400.017517 256.032135,400.022949 257.418030,400.056274 
	C279.047089,400.575867 286.785675,383.234924 287.640411,366.448334 
	C288.324829,353.007019 288.870514,339.548340 288.186401,326.063477 
	C287.760345,317.664612 288.047119,317.650055 296.529907,317.655914 
	C297.528046,317.656616 298.526184,317.656830 300.019592,317.657349 
z"/>
</svg>